<?xml version="1.0" encoding="UTF-8" standalone="no"?>
<svg
   xmlns:dc="http://purl.org/dc/elements/1.1/"
   xmlns:cc="http://creativecommons.org/ns#"
   xmlns:rdf="http://www.w3.org/1999/02/22-rdf-syntax-ns#"
   xmlns:svg="http://www.w3.org/2000/svg"
   xmlns="http://www.w3.org/2000/svg"
   xmlns:sodipodi="http://sodipodi.sourceforge.net/DTD/sodipodi-0.dtd"
   xmlns:inkscape="http://www.inkscape.org/namespaces/inkscape"
   width="48"
   height="48"
   viewBox="0 0 48 48"
   id="svg3386"
   version="1.1"
   inkscape:version="0.91 r13725"
   sodipodi:docname="bigImage.svg"
   inkscape:export-filename="/home/jasonw/Downloads/omIcon.png"
   inkscape:export-xdpi="960"
   inkscape:export-ydpi="960">
  <metadata
     id="metadata3396">
    <rdf:RDF>
      <cc:Work
         rdf:about="">
        <dc:format>image/svg+xml</dc:format>
        <dc:type
           rdf:resource="http://purl.org/dc/dcmitype/StillImage" />
        <dc:title></dc:title>
      </cc:Work>
    </rdf:RDF>
  </metadata>
  <defs
     id="defs3394" />
  <sodipodi:namedview
     pagecolor="#ffffff"
     bordercolor="#666666"
     borderopacity="1"
     objecttolerance="10"
     gridtolerance="10"
     guidetolerance="10"
     inkscape:pageopacity="0"
     inkscape:pageshadow="2"
     inkscape:window-width="1920"
     inkscape:window-height="1149"
     id="namedview3392"
     showgrid="false"
     inkscape:zoom="13.597074"
     inkscape:cx="11.79737"
     inkscape:cy="26.443228"
     inkscape:window-x="0"
     inkscape:window-y="0"
     inkscape:window-maximized="1"
     inkscape:current-layer="svg3386" />
  <rect
     style="fill:#1f1c24;fill-opacity:1;stroke:#502d16;stroke-width:1.19064629"
     id="rect3720"
     width="81.716179"
     height="39.280636"
     x="-24.034685"
     y="2.0194833"
     inkscape:export-filename="/home/jasonw/Downloads/bigImage.png"
     inkscape:export-xdpi="1111.6093"
     inkscape:export-ydpi="1111.6093" />
  <path
     fill="none"
     d="M0 0h48v48H0V0z"
     id="path3388" />
  <path
     d="m 28.495181,13.021024 -25.1992309,0 c -1.7403218,0 -3.14990335,0.975416 -3.14990335,2.179701 l 0,19.617296 6.29980685,-4.3594 22.0493274,0 c 1.740321,0 3.149901,-0.975416 3.149901,-2.1797 l 0,-13.078196 c 0,-1.204285 -1.40958,-2.179701 -3.149901,-2.179701 z m 0,15.257897 -22.0493274,0 -3.1499035,2.1797 0,-15.257896 25.1992309,0 0,13.078196 z"
     id="path3390"
     style="fill:#e3e2db"
     inkscape:connector-curvature="0" />
  <path
     style="fill:#803300;fill-opacity:0"
     d="m 3.3232518,22.66824 0,-7.601651 12.5723132,0 12.572312,0 0,6.532015 0,6.532013 -11.026167,0 -11.0261724,0 -1.5461415,1.069637 -1.5461443,1.069637 0,-7.601651 z"
     id="path3398"
     inkscape:connector-curvature="0" />
  <path
     style="fill:#803300;fill-opacity:0"
     d="m 3.3232518,22.66824 0,-7.601651 12.5723132,0 12.572312,0 0,6.532015 0,6.532013 -11.026167,0 -11.0261724,0 -1.5461415,1.069637 -1.5461443,1.069637 0,-7.601651 z"
     id="path3400"
     inkscape:connector-curvature="0" />
  <path
     style="fill:#803300;fill-opacity:0"
     d="m 3.3232518,22.66824 0,-7.601651 12.5723132,0 12.572312,0 0,6.532015 0,6.532013 -11.026167,0 -11.0261724,0 -1.5461415,1.069637 -1.5461443,1.069637 0,-7.601651 z"
     id="path3402"
     inkscape:connector-curvature="0" />
  <path
     style="fill:#803300;fill-opacity:0"
     d="m 3.3232518,22.66824 0,-7.601651 12.5723132,0 12.572312,0 0,6.532015 0,6.532013 -11.026167,0 -11.0261724,0 -1.5461415,1.069637 -1.5461443,1.069637 0,-7.601651 z"
     id="path3404"
     inkscape:connector-curvature="0" />
  <path
     style="fill:#803300;fill-opacity:0"
     d="M 0.17064655,24.729932 C 0.1714163,14.009113 0.15822524,14.661127 0.38219165,14.273113 0.66170977,13.788852 1.2346776,13.356291 1.8960733,13.130205 2.6450763,12.874173 1.1621278,12.898697 15.895565,12.898697 c 14.734459,0 13.242041,-0.02468 14.004959,0.231517 0.335309,0.112596 0.44185,0.167634 0.779855,0.402862 0.431227,0.300105 0.64722,0.545969 0.824388,0.938405 l 0.09596,0.212539 0,6.914584 0,6.914581 -0.09596,0.212539 c -0.177521,0.393218 -0.393071,0.638356 -0.823706,0.936781 -0.336234,0.233005 -0.445141,0.289065 -0.779856,0.401431 -0.772312,0.259274 0.549481,0.233095 -12.203745,0.241704 l -11.28232,0.0076 -3.1226016,2.16045 -3.12260291,2.160447 7.1106e-4,-9.90422 z m 4.72926345,4.505884 1.5557779,-1.076862 11.0265721,0 11.02657,0 0,-6.56035 0,-6.560353 -12.613265,0 -12.6132658,0 0,7.637213 c 0,4.200468 0.013915,7.637214 0.030922,7.637214 0.017006,0 0.7310165,-0.484586 1.5866942,-1.076862 z"
     id="path3406"
     inkscape:connector-curvature="0" />
  <path
     style="fill:#803300;fill-opacity:0"
     d="M 0.17064655,24.729932 C 0.1714163,14.009113 0.15822524,14.661127 0.38219165,14.273113 0.66170977,13.788852 1.2346776,13.356291 1.8960733,13.130205 2.6450763,12.874173 1.1621278,12.898697 15.895565,12.898697 c 14.734459,0 13.242041,-0.02468 14.004959,0.231517 0.335309,0.112596 0.44185,0.167634 0.779855,0.402862 0.431227,0.300105 0.64722,0.545969 0.824388,0.938405 l 0.09596,0.212539 0,6.914584 0,6.914581 -0.09596,0.212539 c -0.177521,0.393218 -0.393071,0.638356 -0.823706,0.936781 -0.336234,0.233005 -0.445141,0.289065 -0.779856,0.401431 -0.772312,0.259274 0.549481,0.233095 -12.203745,0.241704 l -11.28232,0.0076 -3.1226016,2.16045 -3.12260291,2.160447 7.1106e-4,-9.90422 z m 4.72926345,4.505884 1.5557779,-1.076862 11.0265721,0 11.02657,0 0,-6.56035 0,-6.560353 -12.613265,0 -12.6132658,0 0,7.637213 c 0,4.200468 0.013915,7.637214 0.030922,7.637214 0.017006,0 0.7310165,-0.484586 1.5866942,-1.076862 z"
     id="path3408"
     inkscape:connector-curvature="0" />
  <path
     style="fill:#803300;fill-opacity:0"
     d="M 0.17064655,24.729932 C 0.1714163,14.009113 0.15822524,14.661127 0.38219165,14.273113 0.66170977,13.788852 1.2346776,13.356291 1.8960733,13.130205 2.6450763,12.874173 1.1621278,12.898697 15.895565,12.898697 c 14.734459,0 13.242041,-0.02468 14.004959,0.231517 0.335309,0.112596 0.44185,0.167634 0.779855,0.402862 0.431227,0.300105 0.64722,0.545969 0.824388,0.938405 l 0.09596,0.212539 0,6.914584 0,6.914581 -0.09596,0.212539 c -0.177521,0.393218 -0.393071,0.638356 -0.823706,0.936781 -0.336234,0.233005 -0.445141,0.289065 -0.779856,0.401431 -0.772312,0.259274 0.549481,0.233095 -12.203745,0.241704 l -11.28232,0.0076 -3.1226016,2.16045 -3.12260291,2.160447 7.1106e-4,-9.90422 z m 4.72926345,4.505884 1.5557779,-1.076862 11.0265721,0 11.02657,0 0,-6.56035 0,-6.560353 -12.613265,0 -12.6132658,0 0,7.637213 c 0,4.200468 0.013915,7.637214 0.030922,7.637214 0.017006,0 0.7310165,-0.484586 1.5866942,-1.076862 z"
     id="path3410"
     inkscape:connector-curvature="0" />
  <path
     style="fill:#803300;fill-opacity:0"
     d="M 0.17064655,24.729932 C 0.1714163,14.009113 0.15822524,14.661127 0.38219165,14.273113 0.66170977,13.788852 1.2346776,13.356291 1.8960733,13.130205 2.6450763,12.874173 1.1621278,12.898697 15.895565,12.898697 c 14.734459,0 13.242041,-0.02468 14.004959,0.231517 0.335309,0.112596 0.44185,0.167634 0.779855,0.402862 0.431227,0.300105 0.64722,0.545969 0.824388,0.938405 l 0.09596,0.212539 0,6.914584 0,6.914581 -0.09596,0.212539 c -0.177521,0.393218 -0.393071,0.638356 -0.823706,0.936781 -0.336234,0.233005 -0.445141,0.289065 -0.779856,0.401431 -0.772312,0.259274 0.549481,0.233095 -12.203745,0.241704 l -11.28232,0.0076 -3.1226016,2.16045 -3.12260291,2.160447 7.1106e-4,-9.90422 z m 4.72926345,4.505884 1.5557779,-1.076862 11.0265721,0 11.02657,0 0,-6.56035 0,-6.560353 -12.613265,0 -12.6132658,0 0,7.637213 c 0,4.200468 0.013915,7.637214 0.030922,7.637214 0.017006,0 0.7310165,-0.484586 1.5866942,-1.076862 z"
     id="path3412"
     inkscape:connector-curvature="0" />
  <path
     style="fill:#803300;fill-opacity:0"
     d="m 0.13024762,24.822102 c 7.6752e-4,-5.96366 0.0163991,-9.90698 0.0397641,-10.031452 0.09306,-0.495742 0.39794587,-0.913008 0.93777606,-1.283435 0.3897429,-0.267438 0.7707485,-0.424569 1.314516,-0.54212 l 0.3071418,-0.06639 13.1661204,0 13.166118,0 0.307143,0.06639 c 0.543769,0.117551 0.924774,0.274682 1.314517,0.54212 0.544344,0.373525 0.832525,0.769697 0.934812,1.285123 0.06163,0.310574 0.06163,13.301954 0,13.612529 -0.102288,0.515427 -0.390468,0.9116 -0.934812,1.285123 -0.380103,0.260822 -0.74904,0.415328 -1.294042,0.541928 l -0.286664,0.06657 -11.323804,0.0074 -11.3238022,0.0074 -3.1322098,2.167593 c -1.7227142,1.192177 -3.14607589,2.167595 -3.16302394,2.167595 -0.0169484,0 -0.0302459,-4.421862 -0.0295495,-9.82636 z m 4.76966238,4.385375 1.5557779,-1.07686 11.0265721,0 11.02657,0 0,-6.532013 0,-6.532015 -12.613265,0 -12.6132658,0 0,7.608875 c 0,4.184881 0.013915,7.608875 0.030922,7.608875 0.017006,0 0.7310165,-0.484588 1.5866942,-1.076862 z"
     id="path3414"
     inkscape:connector-curvature="0" />
  <rect
     style="fill:#502d16;fill-opacity:0"
     id="rect3552"
     width="8.0675745"
     height="5.2142758"
     x="9.9370251"
     y="19.512892" />
  <rect
     style="fill:#502d16;fill-opacity:0;stroke:#502d16;stroke-width:0.65506881"
     id="rect3570"
     width="24.325583"
     height="12.553935"
     x="3.6713452"
     y="15.318801" />
  <path
     style="fill:#502d16;fill-opacity:0;stroke:#502d16;stroke-width:0.03406641"
     d="m 4.053376,21.584434 0,-6.007753 11.773748,0 11.773746,0 0,6.007753 0,6.007753 -11.773746,0 -11.773748,0 0,-6.007753 z"
     id="path3576"
     inkscape:connector-curvature="0" />
  <path
     style="fill:#502d16;fill-opacity:0;stroke:#502d16;stroke-width:0.03406641"
     d="M 4.080749,27.573342 C 4.0656912,27.562915 4.053372,24.86579 4.053372,21.57971 l 0,-5.97469 11.773841,0 11.773842,0 -0.01037,5.986498 -0.01037,5.986499 -11.73614,0.0071 c -6.4548752,0.0039 -11.748454,-0.0014 -11.763507,-0.01181 z"
     id="path3578"
     inkscape:connector-curvature="0" />
  <path
     style="fill:#502d16;fill-opacity:0;stroke:#502d16;stroke-width:0.03406641"
     d="m 4.0943289,21.584434 0,-5.979414 11.7327951,0 11.732792,0 0,5.979414 0,5.979414 -11.732792,0 -11.7327951,0 0,-5.979414 z"
     id="path3580"
     inkscape:connector-curvature="0" />
  <path
     style="fill:#502d16;fill-opacity:0;stroke:#502d16;stroke-width:0.03406641"
     d="m 4.1217016,27.545004 c -0.015059,-0.01042 -0.027377,-2.694798 -0.027377,-5.965294 l 0,-5.946351 11.7328884,0 11.732891,0 -0.01037,5.958159 -0.01037,5.95816 -11.695183,0.0071 c -6.4323529,0.0039 -11.7075032,-0.0014 -11.7225585,-0.01181 z"
     id="path3582"
     inkscape:connector-curvature="0" />
  <path
     style="fill:#502d16;fill-opacity:1;stroke:#502d16;stroke-width:0.03406641"
     d="m 4.1352812,21.584434 0,-5.951075 11.6918428,0 11.69184,0 0,5.951075 0,5.951075 -11.69184,0 -11.6918428,0 0,-5.951075 z"
     id="path3674"
     inkscape:connector-curvature="0" />
  <path
     style="fill:#502d16;fill-opacity:1;stroke:#502d16;stroke-width:0.03406641"
     d="m 3.2752854,21.598649 0,-6.560398 12.5724016,0 12.5724,0 -0.01038,6.553267 -0.01037,6.553269 -12.562075,0.0071 -12.5620734,0.0071 0,-6.560396 z"
     id="path3676"
     inkscape:connector-curvature="0" />
  <path
     style="fill:#502d16;fill-opacity:1;stroke:#502d16;stroke-width:0.03406641"
     d="m 3.2343329,21.603311 0,-6.593399 12.6168611,0 12.616862,0 -0.02931,6.567438 c -0.01612,3.612089 -0.0331,6.570637 -0.03777,6.574552 -0.0045,0.0039 -5.66905,0.0156 -12.587554,0.02596 l -12.5790934,0.01885 0,-6.593399 z"
     id="path3678"
     inkscape:connector-curvature="0" />
  <path
     style="fill:#502d16;fill-opacity:1;stroke:#502d16;stroke-width:0.03406641"
     d="m 3.1933823,21.602647 0,-6.621075 12.6547847,0 12.654786,0 -0.02201,5.419732 c -0.0121,2.98085 -0.03292,5.944074 -0.04625,6.584941 l -0.02423,1.165213 -0.926946,0.01769 c -0.509818,0.0098 -6.183667,0.02599 -12.608548,0.03614 l -11.6816036,0.01845 0,-6.621075 z"
     id="path3680"
     inkscape:connector-curvature="0" />
  <path
     style="fill:#502d16;fill-opacity:1;stroke:#502d16;stroke-width:0.03406641"
     d="m 3.1524299,21.602112 0,-6.648876 12.6976461,0 12.697649,0 -0.02824,4.697099 c -0.01552,2.583402 -0.03968,5.557878 -0.05366,6.609942 l -0.02545,1.912847 -1.494755,0.01734 c -0.822114,0.0096 -6.511905,0.02706 -12.643979,0.03893 l -11.1492258,0.02161 0,-6.648879 z"
     id="path3682"
     inkscape:connector-curvature="0" />
  <path
     style="fill:#502d16;fill-opacity:1;stroke:#502d16;stroke-width:0.03406641"
     d="m 3.1114773,21.601349 0,-6.676452 12.7389997,0 12.739004,0 -0.02628,3.832776 c -0.03613,5.267426 -0.08967,9.401965 -0.122068,9.424385 -0.04053,0.02805 -5.383081,0.05351 -15.900416,0.07576 l -9.4292365,0.01998 0,-6.676451 z"
     id="path3684"
     inkscape:connector-curvature="0" />
  <path
     style="fill:#502d16;fill-opacity:1;stroke:#502d16;stroke-width:0.03406641"
     d="m 3.0705258,21.598604 0,-6.702047 12.7814622,0 12.781464,0 -0.02631,3.110145 c -0.04415,5.218453 -0.104852,9.903431 -0.130324,10.056711 l -0.02415,0.145335 -1.562324,0.01902 c -1.437323,0.01748 -17.8791128,0.07159 -22.0281654,0.07249 l -1.7916558,3.91e-4 0,-6.702043 z"
     id="path3686"
     inkscape:connector-curvature="0" />
  <path
     style="fill:#502d16;fill-opacity:1;stroke:#502d16;stroke-width:0.03406641"
     d="m 3.029573,21.602304 0,-6.734085 12.823428,0 12.823426,0 -0.02689,2.628391 c -0.10111,9.882067 -0.11543,10.701869 -0.187488,10.732686 -0.03663,0.01569 -9.812895,0.06105 -18.9722707,0.08805 l -6.4602034,0.01907 0,-6.734087 z"
     id="path3688"
     inkscape:connector-curvature="0" />
  <path
     style="fill:#502d16;fill-opacity:1;stroke:#502d16;stroke-width:0.03406641"
     d="m 2.9886204,21.602627 0,-6.762746 12.8589786,0 12.858978,0 1.65e-4,0.4605 c 8.64e-4,2.446147 -0.149941,12.782893 -0.187863,12.877125 -0.02293,0.05697 -0.05783,0.06217 -0.522479,0.07794 -0.468578,0.01592 -7.500223,0.0485 -19.6737578,0.0912 l -5.3340218,0.01872 0,-6.762747 z"
     id="path3690"
     inkscape:connector-curvature="0" />
  <path
     style="fill:#502d16;fill-opacity:1;stroke:#502d16;stroke-width:0.03406641"
     d="m 2.947669,21.598604 0,-6.787062 12.906121,0 12.906123,0 -0.02724,2.231654 c -0.106496,8.727338 -0.154672,11.131046 -0.224049,11.179054 -0.0349,0.02416 -0.319835,0.04141 -0.91941,0.05566 -0.720769,0.01713 -20.8450466,0.108607 -23.7508464,0.107957 l -0.8907095,-1.99e-4 0,-6.787058 z"
     id="path3692"
     inkscape:connector-curvature="0" />
  <path
     style="fill:#502d16;fill-opacity:1;stroke:#502d16;stroke-width:0.03406641"
     d="m 2.9067165,21.602054 0,-6.81885 12.9468685,0 12.946873,0 -0.02713,1.948269 c -0.01491,1.071548 -0.0454,3.319142 -0.06776,4.994654 -0.04557,3.415421 -0.11136,6.287908 -0.147122,6.423781 -0.01304,0.04958 -0.05415,0.0988 -0.09137,0.109394 -0.124905,0.03557 -3.540706,0.06611 -10.756154,0.09623 -3.941646,0.01646 -8.8850825,0.03789 -10.9854164,0.04763 l -3.8187895,0.01773 0,-6.818852 z"
     id="path3694"
     inkscape:connector-curvature="0" />
  <path
     style="fill:#502d16;fill-opacity:1;stroke:#502d16;stroke-width:0.03406641"
     d="m 2.8657637,21.601466 0,-6.846601 12.9874893,0 12.987488,0 -0.02716,1.764069 c -0.01493,0.970238 -0.04501,3.052052 -0.06683,4.626252 -0.0493,3.558082 -0.113855,6.593874 -0.14595,6.865984 -0.0202,0.171207 -0.03985,0.213464 -0.115059,0.247568 -0.121751,0.05522 -3.376137,0.08848 -12.31055,0.12586 -3.727671,0.01561 -8.2472534,0.03627 -10.0435177,0.04591 l -3.2659344,0.01757 0,-6.846602 z"
     id="path3696"
     inkscape:connector-curvature="0" />
  <path
     style="fill:#502d16;fill-opacity:1;stroke:#502d16;stroke-width:0.03406641"
     d="m 2.8248122,21.600748 0,-6.87422 13.0227868,0 13.022788,0 -2.47e-4,0.290468 c -5.78e-4,0.649805 -0.123085,8.43427 -0.165344,10.506484 -0.04791,2.349531 -0.06945,2.680964 -0.177712,2.735746 -0.0359,0.01818 -0.254384,0.04131 -0.485505,0.05145 -0.700589,0.03069 -6.060785,0.07182 -13.279201,0.101955 -3.761455,0.01571 -7.9861821,0.03615 -9.388281,0.04544 l -2.5492848,0.01692 0,-6.874219 z"
     id="path3698"
     inkscape:connector-curvature="0" />
  <path
     style="fill:#502d16;fill-opacity:1;stroke:#502d16;stroke-width:0.03406641"
     d="m 2.7838596,21.599753 0,-6.901564 13.0682994,0 13.068297,0 -0.02623,1.466515 c -0.01444,0.806584 -0.04412,2.601469 -0.066,3.988638 -0.102925,6.527404 -0.141823,7.922089 -0.225041,8.069066 -0.04016,0.07089 -0.252345,0.09958 -0.879476,0.118831 -0.812996,0.02496 -6.985669,0.06787 -14.374209,0.09998 -3.5700045,0.01552 -7.4077345,0.03536 -8.5282893,0.04414 l -2.0373692,0.01596 0,-6.90156 z"
     id="path3700"
     inkscape:connector-curvature="0" />
  <path
     style="fill:#502d16;fill-opacity:1;stroke:#502d16;stroke-width:0.03406641"
     d="m 2.7429071,21.599772 0,-6.929922 13.1046919,0 13.104692,0 -3.1e-5,0.134608 c -1.24e-4,0.600192 -0.171289,10.116638 -0.204498,11.370804 -0.03917,1.479712 -0.05937,1.872971 -0.104153,2.028426 -0.02825,0.09806 -0.205764,0.127247 -0.936979,0.154116 -0.820514,0.03015 -6.899096,0.07317 -15.831385,0.112086 -3.5024342,0.01526 -6.9900229,0.03495 -7.7501968,0.04376 l -1.3821365,0.01604 0,-6.929919 z"
     id="path3702"
     inkscape:connector-curvature="0" />
  <path
     style="fill:#502d16;fill-rule:evenodd;stroke:#000000;stroke-width:0.65506881px;stroke-linecap:butt;stroke-linejoin:miter;stroke-opacity:1"
     d="M 3.0980154,28.467844 3.016119,30.876613 7.4799036,27.816059"
     id="path3706"
     inkscape:connector-curvature="0" />
  <path
     style="fill:#502d16;fill-opacity:1;stroke:#502d16;stroke-width:0.03406641"
     d="m 2.6050813,31.226595 c 0.00874,-0.245483 0.027179,-0.592984 0.040908,-0.772224 0.01373,-0.179241 0.036544,-3.77539 0.050706,-7.991444 l 0.025732,-7.665554 13.1025797,-0.0072 c 7.206419,-0.0039 13.114625,0.0025 13.129345,0.01417 0.02592,0.02062 0.0099,1.260702 -0.08203,6.298267 -0.117789,6.464314 -0.144801,7.223964 -0.2597,7.303471 -0.03401,0.02355 -0.141953,0.05403 -0.239884,0.06774 -0.42412,0.05946 -5.559654,0.10684 -16.981142,0.156629 l -4.353632,0.01899 -2.2045275,1.511709 c -1.212489,0.831438 -2.2134707,1.511708 -2.2244048,1.511708 -0.010964,0 -0.012702,-0.20085 -0.00385,-0.446332 z"
     id="path3708"
     inkscape:connector-curvature="0" />
  <text
     xml:space="preserve"
     style="font-style:normal;font-weight:normal;font-size:11.46370411px;line-height:125%;font-family:sans-serif;letter-spacing:0px;word-spacing:0px;fill:#e3dbde;fill-opacity:1;stroke:none;stroke-width:1px;stroke-linecap:butt;stroke-linejoin:miter;stroke-opacity:1"
     x="2.6793103"
     y="29.07793"
     id="text3710"
     sodipodi:linespacing="125%"
     transform="scale(1.2021269,0.83185895)"><tspan
       sodipodi:role="line"
       id="tspan3712"
       x="2.6793103"
       y="29.07793">one</tspan></text>
  <text
     xml:space="preserve"
     style="font-style:normal;font-weight:normal;font-size:12.19251347px;line-height:125%;font-family:sans-serif;letter-spacing:0px;word-spacing:0px;fill:#e3dbde;fill-opacity:1;stroke:none;stroke-width:1px;stroke-linecap:butt;stroke-linejoin:miter;stroke-opacity:1"
     x="-6.7860823"
     y="12.457625"
     id="text3741"
     sodipodi:linespacing="125%"
     transform="scale(1.0863588,0.92050616)"><tspan
       sodipodi:role="line"
       id="tspan3743"
       x="-6.7860823"
       y="12.457625">send</tspan></text>
  <text
     xml:space="preserve"
     style="font-style:normal;font-weight:normal;font-size:11.25px;line-height:125%;font-family:sans-serif;letter-spacing:0px;word-spacing:0px;fill:#e3dbde;fill-opacity:1;stroke:none;stroke-width:1px;stroke-linecap:butt;stroke-linejoin:miter;stroke-opacity:1;"
     x="26.418201"
     y="35.726978"
     id="text3745"
     sodipodi:linespacing="125%"><tspan
       sodipodi:role="line"
       id="tspan3747"
       x="26.418201"
       y="35.726978"></tspan></text>
  <text
     xml:space="preserve"
     style="font-style:normal;font-weight:normal;font-size:11.25px;line-height:125%;font-family:sans-serif;letter-spacing:0px;word-spacing:0px;fill:#e3dbde;fill-opacity:1;stroke:none;stroke-width:1px;stroke-linecap:butt;stroke-linejoin:miter;stroke-opacity:1;"
     x="25.326111"
     y="39.315277"
     id="text3749"
     sodipodi:linespacing="125%"><tspan
       sodipodi:role="line"
       id="tspan3751"
       x="25.326111"
       y="39.315277"></tspan></text>
  <text
     xml:space="preserve"
     style="font-style:normal;font-weight:normal;font-size:11.25px;line-height:125%;font-family:sans-serif;letter-spacing:0px;word-spacing:0px;fill:#e3dbde;fill-opacity:1;stroke:none;stroke-width:1px;stroke-linecap:butt;stroke-linejoin:miter;stroke-opacity:1;"
     x="30.058504"
     y="34.68689"
     id="text3753"
     sodipodi:linespacing="125%"><tspan
       sodipodi:role="line"
       id="tspan3755"
       x="30.058504"
       y="34.68689"></tspan></text>
  <text
     xml:space="preserve"
     style="font-style:normal;font-weight:normal;font-size:12.19251347px;line-height:125%;font-family:sans-serif;letter-spacing:0px;word-spacing:0px;fill:#e3dbde;fill-opacity:1;stroke:none;stroke-width:1px;stroke-linecap:butt;stroke-linejoin:miter;stroke-opacity:1"
     x="15.138427"
     y="43.399925"
     id="text3757"
     sodipodi:linespacing="125%"
     transform="scale(1.0863588,0.92050616)"><tspan
       sodipodi:role="line"
       id="tspan3759"
       x="15.138427"
       y="43.399925">text</tspan></text>
</svg>
