<?xml version="1.0" encoding="UTF-8" standalone="no"?>
<svg
   xmlns:dc="http://purl.org/dc/elements/1.1/"
   xmlns:cc="http://creativecommons.org/ns#"
   xmlns:rdf="http://www.w3.org/1999/02/22-rdf-syntax-ns#"
   xmlns:svg="http://www.w3.org/2000/svg"
   xmlns="http://www.w3.org/2000/svg"
   xmlns:sodipodi="http://sodipodi.sourceforge.net/DTD/sodipodi-0.dtd"
   xmlns:inkscape="http://www.inkscape.org/namespaces/inkscape"
   width="48"
   height="48"
   viewBox="0 0 48 48"
   id="svg3386"
   version="1.1"
   inkscape:version="0.91 r13725"
   sodipodi:docname="marketingIcon.svg"
   inkscape:export-filename="/home/jasonw/Downloads/omIcon.png"
   inkscape:export-xdpi="960"
   inkscape:export-ydpi="960">
  <metadata
     id="metadata3396">
    <rdf:RDF>
      <cc:Work
         rdf:about="">
        <dc:format>image/svg+xml</dc:format>
        <dc:type
           rdf:resource="http://purl.org/dc/dcmitype/StillImage" />
        <dc:title></dc:title>
      </cc:Work>
    </rdf:RDF>
  </metadata>
  <defs
     id="defs3394" />
  <sodipodi:namedview
     pagecolor="#ffffff"
     bordercolor="#666666"
     borderopacity="1"
     objecttolerance="10"
     gridtolerance="10"
     guidetolerance="10"
     inkscape:pageopacity="0"
     inkscape:pageshadow="2"
     inkscape:window-width="1920"
     inkscape:window-height="1149"
     id="namedview3392"
     showgrid="false"
     inkscape:zoom="19.229167"
     inkscape:cx="25.131284"
     inkscape:cy="26.019997"
     inkscape:window-x="0"
     inkscape:window-y="0"
     inkscape:window-maximized="1"
     inkscape:current-layer="svg3386" />
  <rect
     style="fill:#1f1c24;fill-opacity:1;stroke:#502d16"
     id="rect3720"
     width="47.583961"
     height="47.583965"
     x="0.36403033"
     y="0.36403033" />
  <path
     fill="none"
     d="M0 0h48v48H0V0z"
     id="path3388" />
  <path
     d="M40 4H8C5.79 4 4 5.79 4 8v36l8-8h28c2.21 0 4-1.79 4-4V8c0-2.21-1.79-4-4-4zm0 28H12l-4 4V8h32v24z"
     id="path3390"
     style="fill:#e3e2db" />
  <path
     style="fill:#803300;fill-opacity:0"
     d="m 8.0346696,21.963774 0,-13.9499062 15.9653304,0 15.96533,0 0,11.9869992 0,11.986999 -14.001913,0 -14.001914,0 -1.9634165,1.962907 -1.9634169,1.962907 0,-13.949906 z"
     id="path3398"
     inkscape:connector-curvature="0" />
  <path
     style="fill:#803300;fill-opacity:0"
     d="m 8.0346696,21.963774 0,-13.9499062 15.9653304,0 15.96533,0 0,11.9869992 0,11.986999 -14.001913,0 -14.001914,0 -1.9634165,1.962907 -1.9634169,1.962907 0,-13.949906 z"
     id="path3400"
     inkscape:connector-curvature="0" />
  <path
     style="fill:#803300;fill-opacity:0"
     d="m 8.0346696,21.963774 0,-13.9499062 15.9653304,0 15.96533,0 0,11.9869992 0,11.986999 -14.001913,0 -14.001914,0 -1.9634165,1.962907 -1.9634169,1.962907 0,-13.949906 z"
     id="path3402"
     inkscape:connector-curvature="0" />
  <path
     style="fill:#803300;fill-opacity:0"
     d="m 8.0346696,21.963774 0,-13.9499062 15.9653304,0 15.96533,0 0,11.9869992 0,11.986999 -14.001913,0 -14.001914,0 -1.9634165,1.962907 -1.9634169,1.962907 0,-13.949906 z"
     id="path3404"
     inkscape:connector-curvature="0" />
  <path
     style="fill:#803300;fill-opacity:0"
     d="M 4.0312388,25.747218 C 4.0322163,6.0732767 4.0154659,7.269801 4.2998758,6.5577465 4.6548303,5.6690751 5.3824307,4.8752728 6.2223247,4.4603804 7.1734675,3.9905331 5.2903019,4.0355363 24,4.0355363 c 18.710995,0 16.815804,-0.045275 17.784619,0.4248595 0.425802,0.2066278 0.561096,0.3076279 0.990324,0.7393011 0.547605,0.5507246 0.821888,1.001915 1.046871,1.7220799 l 0.121848,0.3900325 0,12.6890577 0,12.689057 -0.121848,0.390033 c -0.225431,0.7216 -0.499151,1.171454 -1.046008,1.719099 -0.426978,0.427592 -0.565275,0.530467 -0.990324,0.736674 -0.980741,0.475795 0.697775,0.427753 -15.497291,0.443553 l -14.327194,0.01398 -3.9653307,3.964673 -3.9653304,3.964672 9.029e-4,-18.175387 z m 6.0055972,8.268817 1.975652,-1.976165 14.002424,0 14.002423,0 0,-12.039003 0,-12.0390035 -16.017335,0 -16.0173348,0 0,14.0151675 c 0,7.708343 0.017667,14.015168 0.03926,14.015168 0.021593,0 0.928303,-0.889274 2.0149109,-1.976164 z"
     id="path3406"
     inkscape:connector-curvature="0" />
  <path
     style="fill:#803300;fill-opacity:0"
     d="M 4.0312388,25.747218 C 4.0322163,6.0732767 4.0154659,7.269801 4.2998758,6.5577465 4.6548303,5.6690751 5.3824307,4.8752728 6.2223247,4.4603804 7.1734675,3.9905331 5.2903019,4.0355363 24,4.0355363 c 18.710995,0 16.815804,-0.045275 17.784619,0.4248595 0.425802,0.2066278 0.561096,0.3076279 0.990324,0.7393011 0.547605,0.5507246 0.821888,1.001915 1.046871,1.7220799 l 0.121848,0.3900325 0,12.6890577 0,12.689057 -0.121848,0.390033 c -0.225431,0.7216 -0.499151,1.171454 -1.046008,1.719099 -0.426978,0.427592 -0.565275,0.530467 -0.990324,0.736674 -0.980741,0.475795 0.697775,0.427753 -15.497291,0.443553 l -14.327194,0.01398 -3.9653307,3.964673 -3.9653304,3.964672 9.029e-4,-18.175387 z m 6.0055972,8.268817 1.975652,-1.976165 14.002424,0 14.002423,0 0,-12.039003 0,-12.0390035 -16.017335,0 -16.0173348,0 0,14.0151675 c 0,7.708343 0.017667,14.015168 0.03926,14.015168 0.021593,0 0.928303,-0.889274 2.0149109,-1.976164 z"
     id="path3408"
     inkscape:connector-curvature="0" />
  <path
     style="fill:#803300;fill-opacity:0"
     d="M 4.0312388,25.747218 C 4.0322163,6.0732767 4.0154659,7.269801 4.2998758,6.5577465 4.6548303,5.6690751 5.3824307,4.8752728 6.2223247,4.4603804 7.1734675,3.9905331 5.2903019,4.0355363 24,4.0355363 c 18.710995,0 16.815804,-0.045275 17.784619,0.4248595 0.425802,0.2066278 0.561096,0.3076279 0.990324,0.7393011 0.547605,0.5507246 0.821888,1.001915 1.046871,1.7220799 l 0.121848,0.3900325 0,12.6890577 0,12.689057 -0.121848,0.390033 c -0.225431,0.7216 -0.499151,1.171454 -1.046008,1.719099 -0.426978,0.427592 -0.565275,0.530467 -0.990324,0.736674 -0.980741,0.475795 0.697775,0.427753 -15.497291,0.443553 l -14.327194,0.01398 -3.9653307,3.964673 -3.9653304,3.964672 9.029e-4,-18.175387 z m 6.0055972,8.268817 1.975652,-1.976165 14.002424,0 14.002423,0 0,-12.039003 0,-12.0390035 -16.017335,0 -16.0173348,0 0,14.0151675 c 0,7.708343 0.017667,14.015168 0.03926,14.015168 0.021593,0 0.928303,-0.889274 2.0149109,-1.976164 z"
     id="path3410"
     inkscape:connector-curvature="0" />
  <path
     style="fill:#803300;fill-opacity:0"
     d="M 4.0312388,25.747218 C 4.0322163,6.0732767 4.0154659,7.269801 4.2998758,6.5577465 4.6548303,5.6690751 5.3824307,4.8752728 6.2223247,4.4603804 7.1734675,3.9905331 5.2903019,4.0355363 24,4.0355363 c 18.710995,0 16.815804,-0.045275 17.784619,0.4248595 0.425802,0.2066278 0.561096,0.3076279 0.990324,0.7393011 0.547605,0.5507246 0.821888,1.001915 1.046871,1.7220799 l 0.121848,0.3900325 0,12.6890577 0,12.689057 -0.121848,0.390033 c -0.225431,0.7216 -0.499151,1.171454 -1.046008,1.719099 -0.426978,0.427592 -0.565275,0.530467 -0.990324,0.736674 -0.980741,0.475795 0.697775,0.427753 -15.497291,0.443553 l -14.327194,0.01398 -3.9653307,3.964673 -3.9653304,3.964672 9.029e-4,-18.175387 z m 6.0055972,8.268817 1.975652,-1.976165 14.002424,0 14.002423,0 0,-12.039003 0,-12.0390035 -16.017335,0 -16.0173348,0 0,14.0151675 c 0,7.708343 0.017667,14.015168 0.03926,14.015168 0.021593,0 0.928303,-0.889274 2.0149109,-1.976164 z"
     id="path3412"
     inkscape:connector-curvature="0" />
  <path
     style="fill:#803300;fill-opacity:0"
     d="M 3.9799372,25.91636 C 3.9809117,14.972353 4.000761,7.7359088 4.0304322,7.5074901 4.1486062,6.5977445 4.5357757,5.8320131 5.2212961,5.1522373 5.7162221,4.6614587 6.200053,4.3731062 6.8905742,4.1573842 l 0.3900325,-0.1218479 16.7193933,0 16.719393,0 0.390033,0.1218479 c 0.690521,0.215722 1.174352,0.5040745 1.669278,0.9948531 0.691253,0.6854605 1.057208,1.412483 1.1871,2.3583513 0.07827,0.5699379 0.07827,24.4106184 0,24.9805564 -0.129892,0.945868 -0.495847,1.672891 -1.1871,2.358351 -0.482682,0.478637 -0.951187,0.762173 -1.643276,0.9945 l -0.36403,0.122201 -14.379873,0.01355 -14.379871,0.01355 -3.9775308,3.977785 c -2.1876416,2.187782 -3.9951391,3.977785 -4.016661,3.977785 -0.021522,0 -0.038408,-8.114626 -0.037525,-18.032502 z m 6.0568988,8.04767 1.975652,-1.976164 14.002424,0 14.002423,0 0,-11.986999 0,-11.9869992 -16.017335,0 -16.0173348,0 0,13.9631632 c 0,7.67974 0.017667,13.963164 0.03926,13.963164 0.021593,0 0.928303,-0.889274 2.0149109,-1.976165 z"
     id="path3414"
     inkscape:connector-curvature="0" />
  <rect
     style="fill:#502d16;fill-opacity:0"
     id="rect3552"
     width="10.244854"
     height="9.5687971"
     x="16.433369"
     y="16.173347" />
  <rect
     style="fill:#502d16;fill-opacity:0;stroke:#502d16"
     id="rect3570"
     width="30.890574"
     height="23.03792"
     x="8.4767065"
     y="8.4767065" />
  <path
     style="fill:#502d16;fill-opacity:0;stroke:#502d16;stroke-width:0.05200433"
     d="m 8.9618407,19.974864 0,-11.0249183 14.9512463,0 14.951246,0 0,11.0249183 0,11.024919 -14.951246,0 -14.9512463,0 0,-11.024919 z"
     id="path3576"
     inkscape:connector-curvature="0" />
  <path
     style="fill:#502d16;fill-opacity:0;stroke:#502d16;stroke-width:0.05200433"
     d="m 8.9965996,30.965203 c -0.019117,-0.01912 -0.034759,-4.96867 -0.034759,-10.999006 l 0,-10.964247 14.9513674,0 14.951366,0 -0.01312,10.985915 -0.01312,10.985916 -14.903486,0.01309 c -8.196917,0.0072 -14.9191271,-0.0026 -14.9382445,-0.02167 z"
     id="path3578"
     inkscape:connector-curvature="0" />
  <path
     style="fill:#502d16;fill-opacity:0;stroke:#502d16;stroke-width:0.05200433"
     d="m 9.0138451,19.974864 0,-10.972914 14.8992419,0 14.899241,0 0,10.972914 0,10.972915 -14.899241,0 -14.8992419,0 0,-10.972915 z"
     id="path3580"
     inkscape:connector-curvature="0" />
  <path
     style="fill:#502d16;fill-opacity:0;stroke:#502d16;stroke-width:0.05200433"
     d="m 9.0486043,30.913199 c -0.019118,-0.01912 -0.034759,-4.945268 -0.034759,-10.947002 l 0,-10.9122427 14.8993627,0 14.899363,0 -0.01312,10.9339107 -0.01312,10.933912 -14.851481,0.01309 c -8.168315,0.0072 -14.8671229,-0.0026 -14.8862405,-0.02167 z"
     id="path3582"
     inkscape:connector-curvature="0" />
  <path
     style="fill:#502d16;fill-opacity:1;stroke:#502d16;stroke-width:0.05200433"
     d="m 9.0658494,19.974864 0,-10.9209097 14.8472376,0 14.847237,0 0,10.9209097 0,10.92091 -14.847237,0 -14.8472376,0 0,-10.92091 z"
     id="path3674"
     inkscape:connector-curvature="0" />
  <path
     style="fill:#502d16;fill-opacity:1;stroke:#502d16;stroke-width:0.05200433"
     d="m 7.9737584,20.00095 0,-12.0390867 15.9654416,0 15.965441,0 -0.01311,12.0260017 -0.01311,12.026003 -15.952329,0.01308 -15.9523296,0.01308 0,-12.039087 z"
     id="path3676"
     inkscape:connector-curvature="0" />
  <path
     style="fill:#502d16;fill-opacity:1;stroke:#502d16;stroke-width:0.05200433"
     d="m 7.9217541,20.009506 0,-12.099647 16.0218999,0 16.021901,0 -0.03722,12.052004 c -0.02047,6.628603 -0.04205,12.057881 -0.04796,12.065062 -0.0059,0.0072 -7.199017,0.02862 -15.984685,0.04764 l -15.9739409,0.03458 0,-12.099647 z"
     id="path3678"
     inkscape:connector-curvature="0" />
  <path
     style="fill:#502d16;fill-opacity:1;stroke:#502d16;stroke-width:0.05200433"
     d="m 7.8697497,20.008289 0,-12.1504343 16.0700603,0 16.07006,0 -0.02795,9.9458283 c -0.01537,5.470206 -0.0418,10.908064 -0.05871,12.084128 l -0.03076,2.1383 -1.17711,0.03245 c -0.64741,0.01785 -7.852515,0.04769 -16.011345,0.06631 l -14.8342363,0.03385 0,-12.150435 z"
     id="path3680"
     inkscape:connector-curvature="0" />
  <path
     style="fill:#502d16;fill-opacity:1;stroke:#502d16;stroke-width:0.05200433"
     d="m 7.8177454,20.007307 0,-12.2014567 16.1244896,0 16.124489,0 -0.03585,8.6197187 c -0.01971,4.740845 -0.05038,10.19935 -0.06815,12.13001 l -0.03231,3.510293 -1.898158,0.03181 c -1.043987,0.0175 -8.269339,0.04965 -16.056338,0.07145 l -14.1581796,0.03963 0,-12.201458 z"
     id="path3682"
     inkscape:connector-curvature="0" />
  <path
     style="fill:#502d16;fill-opacity:1;stroke:#502d16;stroke-width:0.05200433"
     d="m 7.7657411,20.005905 0,-12.252059 16.1770039,0 16.177005,0 -0.03337,7.033586 c -0.04587,9.666333 -0.113871,17.253691 -0.155012,17.294832 -0.05146,0.05146 -6.835867,0.09818 -20.191625,0.139056 l -11.9739979,0.03664 0,-12.252059 z"
     id="path3684"
     inkscape:connector-curvature="0" />
  <path
     style="fill:#502d16;fill-opacity:1;stroke:#502d16;stroke-width:0.05200433"
     d="m 7.7137367,20.000867 0,-12.2990253 16.2309263,0 16.230926,0 -0.0334,5.7074753 c -0.05605,9.576461 -0.133145,18.173934 -0.165495,18.455221 l -0.03067,0.266706 -1.983963,0.03487 c -1.82523,0.03208 -22.70433,0.131396 -27.9731287,0.13306 l -2.2751896,7.18e-4 0,-12.299024 z"
     id="path3686"
     inkscape:connector-curvature="0" />
  <path
     style="fill:#502d16;fill-opacity:1;stroke:#502d16;stroke-width:0.05200433"
     d="m 7.6617324,20.00766 0,-12.3578227 16.2842156,0 16.284216,0 -0.03415,4.8234017 c -0.128395,18.134728 -0.146581,19.639159 -0.238088,19.695713 -0.04653,0.02876 -12.461201,0.112014 -24.09251,0.161575 l -8.2036836,0.03496 0,-12.357824 z"
     id="path3688"
     inkscape:connector-curvature="0" />
  <path
     style="fill:#502d16;fill-opacity:1;stroke:#502d16;stroke-width:0.05200433"
     d="m 7.6097281,20.008252 0,-12.410419 16.3293609,0 16.329361,0 2.08e-4,0.8450704 c 0.0011,4.4889636 -0.190406,23.4580816 -0.238561,23.6310076 -0.02912,0.104561 -0.07345,0.114121 -0.663487,0.143061 -0.595039,0.02918 -9.524385,0.089 -24.983315,0.167364 l -6.7735669,0.03434 0,-12.410419 z"
     id="path3690"
     inkscape:connector-curvature="0" />
  <path
     style="fill:#502d16;fill-opacity:1;stroke:#502d16;stroke-width:0.05200433"
     d="m 7.5577237,20.000867 0,-12.4550383 16.3892273,0 16.389229,0 -0.03458,4.0953413 c -0.135236,16.015672 -0.196413,20.426752 -0.284515,20.514855 -0.04433,0.04433 -0.40615,0.07598 -1.167539,0.102132 -0.915291,0.03144 -26.470711,0.199304 -30.160727,0.198113 l -1.1310943,-3.66e-4 0,-12.455037 z"
     id="path3692"
     inkscape:connector-curvature="0" />
  <path
     style="fill:#502d16;fill-opacity:1;stroke:#502d16;stroke-width:0.05200433"
     d="m 7.5057194,20.007201 0,-12.5133767 16.4409736,0 16.440974,0 -0.03444,3.5752977 c -0.01894,1.966414 -0.05767,6.091008 -0.08606,9.165764 -0.05787,6.267692 -0.141412,11.539039 -0.186828,11.78838 -0.01657,0.09098 -0.06878,0.181315 -0.116024,0.200752 -0.158615,0.06526 -4.496274,0.12134 -13.659027,0.1766 -5.005417,0.03019 -11.28299,0.06953 -13.950162,0.08742 l -4.8494046,0.03254 0,-12.513376 z"
     id="path3694"
     inkscape:connector-curvature="0" />
  <path
     style="fill:#502d16;fill-opacity:1;stroke:#502d16;stroke-width:0.05200433"
     d="m 7.4537151,20.006122 0,-12.564302 16.4925539,0 16.492553,0 -0.03448,3.23727 c -0.01896,1.780498 -0.05714,5.600866 -0.08485,8.489707 -0.06262,6.52949 -0.144572,12.100517 -0.185342,12.59987 -0.02565,0.314182 -0.05059,0.391734 -0.146107,0.454317 -0.154612,0.101306 -4.287293,0.162364 -15.632923,0.230967 -4.733695,0.02862 -10.473023,0.06654 -12.754063,0.08426 l -4.1473459,0.03222 0,-12.564302 z"
     id="path3696"
     inkscape:connector-curvature="0" />
  <path
     style="fill:#502d16;fill-opacity:1;stroke:#502d16;stroke-width:0.05200433"
     d="m 7.4017107,20.004802 0,-12.6149863 16.5373783,0 16.537378,0 -3.12e-4,0.5330444 c -7.33e-4,1.192466 -0.156302,15.4778579 -0.209968,19.2806069 -0.06085,4.311661 -0.08819,4.91988 -0.225673,5.020411 -0.04559,0.03334 -0.323035,0.07582 -0.616532,0.0944 -0.889665,0.05631 -7.696471,0.131837 -16.862992,0.187099 -4.776598,0.0288 -10.141496,0.06632 -11.921994,0.08339 l -3.2372853,0.03103 0,-12.614987 z"
     id="path3698"
     inkscape:connector-curvature="0" />
  <path
     style="fill:#502d16;fill-opacity:1;stroke:#502d16;stroke-width:0.05200433"
     d="m 7.3497064,20.002974 0,-12.6651627 16.5951726,0 16.595173,0 -0.0333,2.6912247 c -0.01831,1.480173 -0.05602,4.773997 -0.0838,7.31961 -0.130703,11.978538 -0.180097,14.537947 -0.285774,14.807669 -0.05099,0.130135 -0.320449,0.182749 -1.116832,0.218066 -1.032403,0.04579 -8.87096,0.12457 -18.253522,0.183466 -4.533477,0.02846 -9.406933,0.06491 -10.829902,0.08102 l -2.5872156,0.02927 0,-12.665163 z"
     id="path3700"
     inkscape:connector-curvature="0" />
  <path
     style="fill:#502d16;fill-opacity:1;stroke:#502d16;stroke-width:0.05200433"
     d="m 7.2977021,20.003009 0,-12.717202 16.6413869,0 16.641387,0 -4e-5,0.2470206 C 40.58028,8.6342501 40.36292,26.098023 40.320749,28.399566 c -0.04975,2.715438 -0.0754,3.437116 -0.132266,3.722396 -0.03587,0.17993 -0.261297,0.233512 -1.189854,0.282817 -1.041952,0.05533 -8.761023,0.134304 -20.103961,0.205693 -4.44767,0.02799 -8.876489,0.06414 -9.8418197,0.08032 l -1.7551462,0.02942 0,-12.717202 z"
     id="path3702"
     inkscape:connector-curvature="0" />
  <path
     style="fill:#502d16;fill-rule:evenodd;stroke:#000000;stroke-width:1px;stroke-linecap:butt;stroke-linejoin:miter;stroke-opacity:1"
     d="M 7.7486457,32.606717 7.6446371,37.027086 13.313109,31.410618"
     id="path3706"
     inkscape:connector-curvature="0" />
  <path
     style="fill:#502d16;fill-opacity:1;stroke:#502d16;stroke-width:0.05200433"
     d="m 7.1226803,37.409317 c 0.011131,-0.450487 0.034505,-1.08819 0.051943,-1.417118 0.017438,-0.328927 0.046413,-6.928277 0.064391,-14.665222 L 7.2716999,7.2598048 23.910406,7.2467232 c 9.151288,-0.00719 16.654,0.00451 16.672693,0.026002 0.0329,0.037831 0.01239,2.3135303 -0.10418,11.5580438 -0.149579,11.862762 -0.183881,13.256804 -0.329789,13.402712 -0.04318,0.04318 -0.180263,0.09913 -0.304624,0.124331 -0.538582,0.109136 -7.060094,0.196062 -21.564017,0.287433 L 12.7519,32.680075 9.9524152,35.45423 c -1.5397165,1.525786 -2.8108446,2.774157 -2.824729,2.774157 -0.013884,0 -0.016137,-0.368581 -0.00501,-0.819069 z"
     id="path3708"
     inkscape:connector-curvature="0" />
  <text
     xml:space="preserve"
     style="font-style:normal;font-weight:normal;font-size:17.5px;line-height:125%;font-family:sans-serif;letter-spacing:0px;word-spacing:0px;fill:#e3dbde;fill-opacity:1;stroke:none;stroke-width:1px;stroke-linecap:butt;stroke-linejoin:miter;stroke-opacity:1"
     x="7.9046583"
     y="24.49404"
     id="text3710"
     sodipodi:linespacing="125%"><tspan
       sodipodi:role="line"
       id="tspan3712"
       x="7.9046583"
       y="24.49404">one</tspan></text>
</svg>
